HIERARCHY
ROOT Hips
{
  OFFSET 47.716 99.1601 34.127
  CHANNELS 6 Xposition Yposition Zposition Zrotation Xrotation Yrotation
  JOINT spine
  {
    OFFSET 0 8.30104 0.477351
    CHANNELS 3 Zrotation Xrotation Yrotation
    JOINT spine1
    {
      OFFSET 0 10.4565 0
      CHANNELS 3 Zrotation Xrotation Yrotation
      JOINT spine2
      {
        OFFSET 0 10.0192 0
        CHANNELS 3 Zrotation Xrotation Yrotation
        JOINT Neck
        {
          OFFSET 0 25.7235 1.22641
          CHANNELS 3 Zrotation Xrotation Yrotation
          JOINT Head
          {
            OFFSET 0 7.77175 0
            CHANNELS 3 Zrotation Xrotation Yrotation
            End Site
            {
              OFFSET 0 18.812 -6.20394
            }
          }
        }
        JOINT RightShoulder
        {
          OFFSET -4.2188 10.82 -0.587439
          CHANNELS 3 Zrotation Xrotation Yrotation
          JOINT RightArm
          {
            OFFSET 0 14.1914 0
            CHANNELS 3 Zrotation Xrotation Yrotation
            JOINT RightArmRoll
            {
              OFFSET 0 7.16409 0
              CHANNELS 3 Zrotation Xrotation Yrotation
              JOINT RightForeArm
              {
                OFFSET 0 20.8665 0
                CHANNELS 3 Zrotation Xrotation Yrotation
                JOINT RightForeArmRoll
                {
                  OFFSET 0 8.03921 0
                  CHANNELS 3 Zrotation Xrotation Yrotation
                  JOINT RightHand
                  {
                    OFFSET 0 16.133 0
                    CHANNELS 3 Zrotation Xrotation Yrotation
                    End Site
                    {
                      OFFSET 0 0 0
                    }
                  }
                }
              }
            }
          }
        }
        JOINT LeftShoulder
        {
          OFFSET 4.2188 10.82 -0.587439
          CHANNELS 3 Zrotation Xrotation Yrotation
          JOINT LeftArm
          {
            OFFSET 0 14.1914 0
            CHANNELS 3 Zrotation Xrotation Yrotation
            JOINT LeftArmRoll
            {
              OFFSET 0 7.16409 0
              CHANNELS 3 Zrotation Xrotation Yrotation
              JOINT LeftForeArm
              {
                OFFSET 0 20.8665 0
                CHANNELS 3 Zrotation Xrotation Yrotation
                JOINT LeftForeArmRoll
                {
                  OFFSET 0 8.03921 0
                  CHANNELS 3 Zrotation Xrotation Yrotation
                  JOINT LeftHand
                  {
                    OFFSET 0 16.133 0
                    CHANNELS 3 Zrotation Xrotation Yrotation
                    End Site
                    {
                      OFFSET 0 0 0
                    }
                  }
                }
              }
            }
          }
        }
      }
    }
  }
  JOINT RightUpLeg
  {
    OFFSET -7.35773 -1.34921 -1.13182
    CHANNELS 3 Zrotation Xrotation Yrotation
    JOINT RightUpLegRoll
    {
      OFFSET 0 18.9168 0
      CHANNELS 3 Zrotation Xrotation Yrotation
      JOINT RightLeg
      {
        OFFSET 0 -23.4256 0
        CHANNELS 3 Zrotation Xrotation Yrotation
        JOINT RightLegRoll
        {
          OFFSET 0 23.5023 0
          CHANNELS 3 Zrotation Xrotation Yrotation
          JOINT RightFoot
          {
            OFFSET 0 19.5617 0
            CHANNELS 3 Zrotation Xrotation Yrotation
            JOINT RightToeBase
            {
              OFFSET 0 16.3526 0
              CHANNELS 3 Zrotation Xrotation Yrotation
              End Site
              {
                OFFSET 0.00693125 7.91943 -0.912837
              }
            }
          }
        }
      }
    }
  }
  JOINT LeftUpLeg
  {
    OFFSET 7.35773 -1.34921 -1.13182
    CHANNELS 3 Zrotation Xrotation Yrotation
    JOINT LeftUpLegRoll
    {
      OFFSET 0 18.9169 0
      CHANNELS 3 Zrotation Xrotation Yrotation
      JOINT LeftLeg
      {
        OFFSET 0 23.4255 0
        CHANNELS 3 Zrotation Xrotation Yrotation
        JOINT LeftLegRoll
        {
          OFFSET 0 23.7195 0
          CHANNELS 3 Zrotation Xrotation Yrotation
          JOINT LeftFoot
          {
            OFFSET 0 19.3444 0
            CHANNELS 3 Zrotation Xrotation Yrotation
            JOINT LeftToeBase
            {
              OFFSET 0 16.3526 0
              CHANNELS 3 Zrotation Xrotation Yrotation
              End Site
              {
                OFFSET -0.0310629 7.91943 -0.912837
              }
            }
          }
        }
      }
    }
  }
}
MOTION
Frames: 5
Frame Time: 0.00208333
47.8053 75.4871 13.9963 -0.95498 13.1653 -0.631888 0.611445 2.01637 0.223016 1.21988 8.03708 0.336334 1.21911 9.68193 0.316315 -7.02169 -6.58444 0.0408984 3.47546 -13.1834 0.123888 57.1365 -5.85119 -3.53426 121.815 29.2574 -8.26443 -1.14419e-005 -2.49249e-007 1.48069e-006 17.1045 45.3276 -9.08422 5.24743e-007 4.43459e-006 -3.00802 8.02935 -4.95106 0.697555 -60.044 -2.54601 1.69557 -108.773 22.9741 4.12036 -6.75868e-015 1.59028e-015 1.59028e-015 -12.9905 46.4653 7.14096 8.83645e-006 1.26645e-005 2.99999 -8.02944 -4.95098 -0.697531 148.122 65.7923 36.9558 180 1.52564e-005 178.987 161.524 77.238 -166.917 -1.24097e-006 -7.34254e-006 1.69729 -45.0022 79.6122 43.6079 8.32889 28.019 -3.58064 -137.766 64.1695 -44.6603 4.54188e-006 -4.6773e-006 -0.865831 -13.0842 -79.9881 -9.71543 -1.60808e-006 -3.04593e-006 -2.02094 34.6881 78.709 -37.0073 -8.46517 30.4881 3.24796 
47.8036 75.6717 14.085 -0.952751 13.125 -0.604456 0.609276 2.00584 0.222329 1.21572 8.016 0.33595 1.21494 9.66085 0.315991 -6.98841 -6.59719 0.0347693 3.43847 -13.1595 0.113137 57.1736 -5.83864 -3.52826 121.798 29.3447 -8.09114 -1.14419e-005 -2.49249e-007 1.48069e-006 16.9806 44.8574 -8.91569 5.24743e-007 4.43459e-006 -3.00802 8.02935 -4.95106 0.697555 -60.0514 -2.54488 1.69557 -108.79 23.0433 4.0288 6.36111e-015 -3.18055e-015 1.59028e-015 -12.961 46.0496 7.05554 8.83645e-006 1.26645e-005 2.99999 -8.02944 -4.95098 -0.697531 148.543 65.5171 36.4734 180 1.52564e-005 178.99 161.661 76.9194 -167.1 -1.24097e-006 -7.34254e-006 1.6855 -44.8136 79.5758 43.422 8.33054 28.0417 -3.58137 -138.311 63.9492 -44.0665 4.54188e-006 -4.6773e-006 -0.864502 -13.0612 -79.6607 -9.64049 -1.60808e-006 -3.04593e-006 -2.00482 34.532 78.6602 -36.8449 -8.46726 30.5158 3.25143 
47.7896 75.8565 14.1636 -0.950119 13.0846 -0.576964 0.607056 1.99516 0.221558 1.21149 7.99465 0.335465 1.2107 9.6395 0.315566 -6.95276 -6.61091 0.028307 3.39742 -13.1325 0.101394 57.2087 -5.82605 -3.52213 121.783 29.4319 -7.91759 -1.14419e-005 -2.49249e-007 1.48069e-006 16.8566 44.3848 -8.74827 5.24743e-007 4.43459e-006 -3.00802 8.02935 -4.95106 0.697555 -60.0592 -2.54334 1.69536 -108.807 23.1115 3.93695 -1.15295e-014 1.59028e-015 3.18055e-015 -12.9314 45.6327 6.97043 8.83645e-006 1.26645e-005 2.99999 -8.02944 -4.95098 -0.697531 148.955 65.2398 36 180 1.52564e-005 178.992 161.793 76.5987 -167.278 -1.24097e-006 -7.34254e-006 1.67364 -44.6207 79.538 43.2316 8.3322 28.0646 -3.58209 -138.85 63.7263 -43.4793 4.54188e-006 -4.6773e-006 -0.863196 -13.0391 -79.3312 -9.56652 -1.60808e-006 -3.04593e-006 -1.98858 34.3731 78.6099 -36.6794 -8.4694 30.5439 3.25507 
47.7881 76.0476 14.2565 -0.947175 13.0439 -0.54962 0.604796 1.98435 0.220743 1.2072 7.97301 0.334937 1.20641 9.61786 0.315099 -6.91555 -6.62484 0.0215581 3.35372 -13.1028 0.0888907 57.2423 -5.81346 -3.51593 121.768 29.5191 -7.7434 -1.14419e-005 -2.49249e-007 1.48069e-006 16.7323 43.9097 -8.58187 5.24743e-007 4.43459e-006 -3.00802 8.02935 -4.95106 0.697555 -60.0675 -2.54136 1.69492 -108.823 23.1789 3.84438 1.98785e-015 -1.59028e-015 -0 -12.9016 45.215 6.88572 8.83645e-006 1.26645e-005 2.99999 -8.02944 -4.95098 -0.697531 149.359 64.9607 35.5347 180 1.52564e-005 178.995 161.922 76.276 -167.453 -1.24097e-006 -7.34254e-006 1.66173 -44.4238 79.4989 43.037 8.33386 28.0875 -3.5828 -139.381 63.5008 -42.8991 4.54188e-006 -4.6773e-006 -0.861911 -13.0178 -78.9996 -9.49322 -1.60808e-006 -3.04593e-006 -1.97226 34.2117 78.5582 -36.5113 -8.47159 30.5722 3.25878 
47.7805 76.2418 14.3275 -0.944013 13.003 -0.522633 0.602505 1.97338 0.219921 1.20286 7.95106 0.334428 1.20206 9.59592 0.314651 -6.8776 -6.63825 0.0145693 3.30876 -13.0709 0.0758593 57.2748 -5.80089 -3.50971 121.753 29.6066 -7.56816 -1.14419e-005 -2.49249e-007 1.48069e-006 16.6074 43.4315 -8.41639 5.24743e-007 4.43459e-006 -3.00802 8.02935 -4.95106 0.697555 -60.0762 -2.5389 1.69425 -108.837 23.2454 3.75065 -9.93923e-015 3.18055e-015 3.18055e-015 -12.8715 44.7966 6.80148 8.83645e-006 1.26645e-005 2.99999 -8.02944 -4.95098 -0.697531 149.755 64.6798 35.0769 180 1.52565e-005 178.998 162.047 75.9511 -167.624 -1.24097e-006 -7.34254e-006 1.64978 -44.2231 79.4586 42.8384 8.33552 28.1104 -3.58349 -139.905 63.2724 -42.3264 4.54188e-006 -4.6773e-006 -0.860645 -12.9968 -78.6662 -9.42033 -1.60808e-006 -3.04593e-006 -1.95587 34.0483 78.5053 -36.341 -8.47379 30.6007 3.26247 
